<?xml version="1.0" standalone="no"?>
<svg viewBox="0 0 200 200" xmlns="http://www.w3.org/2000/svg">
  <path fill="#8A3FFC" d="M39.7,-60C54,-52.5,69.9,-45.8,79.4,-33.7C89,-21.5,92.2,-3.9,88.2,11.5C84.2,27,73,40.3,61.2,51.9C49.4,63.5,36.9,73.5,23.5,75.3C10,77.2,-4.5,70.9,-20.4,67.3C-36.4,63.7,-53.7,62.6,-66.7,54.2C-79.6,45.7,-88.1,29.8,-87.5,14.4C-86.8,-1,-77.1,-15.9,-67.2,-27.8C-57.3,-39.8,-47.2,-48.7,-36,-57.6C-24.7,-66.4,-12.4,-75.1,0.2,-75.3C12.7,-75.6,25.4,-67.4,39.7,-60Z" transform="translate(100 100)" />
</svg>
